# Blender v2.68 (sub 0) OBJ File: 'model 2.blend'
# www.blender.org
o body_model_Cube
v -0.024783 0.296187 -0.341230
v -0.024783 0.323375 0.127465
v 0.021370 0.461043 -0.247730
v 0.078661 0.534384 0.173884
v -0.069340 0.539158 -0.028966
v -0.024783 0.323375 -0.068753
v 0.075698 0.071771 -0.467886
v 0.059784 -0.011781 0.210355
v 0.111506 0.015407 -0.068753
v -0.033023 -0.743911 0.427526
v 0.234558 -0.701427 -0.325806
v 0.362158 -0.698111 -0.037255
v 0.080358 -0.184584 -0.507981
v 0.214728 0.832652 -0.160862
v 0.214728 0.774299 0.409291
v 0.186082 0.733715 0.040662
v 0.296679 1.134344 -0.320230
v 0.420822 0.942309 0.643811
v 0.512686 1.213883 0.750156
v 0.111307 1.458441 -0.305395
v 0.331990 0.861470 0.227428
v 0.616114 1.241624 0.353897
v 0.400048 1.457616 0.649064
v 0.505415 1.483228 0.302902
v -0.088050 1.636356 0.649064
v 0.017317 1.661968 0.302902
v 0.077942 -0.005036 -0.510271
v 0.111438 -0.107778 -0.465596
v 0.113681 -0.331937 -0.459631
v 0.077942 -0.005036 -0.510271
v 0.077942 -0.005036 -0.510271
v -0.147588 -0.733242 0.439038
v 0.240063 -1.616228 0.697799
v 0.101076 -1.601484 0.700733
v 0.402254 -1.621764 0.374518
v -0.148956 -0.721186 -0.239061
v -0.148956 -0.721186 -0.239061
v 0.066669 -1.624515 0.325436
v -0.186544 -0.755758 0.099989
v -0.014719 -1.605557 0.548790
v 0.200420 -1.623140 0.261664
v 0.007910 -0.711307 -0.328724
v -0.095529 -0.334327 -0.457942
v 0.087288 0.002677 0.061936
v 0.321159 -1.618996 0.561222
v 0.276640 -0.721011 0.380037
v 0.162425 -1.895387 0.700733
v 0.330582 -1.878072 0.374518
v 0.087057 -1.880822 0.363680
v 0.005669 -1.861864 0.548790
v 0.183457 -1.879447 0.350861
v 0.233643 -1.912899 0.561222
v 0.206300 -2.376978 0.395896
v 0.429179 -2.080966 0.148581
v 0.105535 -2.074610 0.134901
v 0.079208 -2.229182 0.212864
v 0.268348 -2.088847 0.112799
v 0.379090 -2.361093 0.391681
v 0.249910 -2.719172 0.205964
v 0.352489 -2.670211 0.011093
v 0.210479 -2.659085 -0.002587
v 0.184152 -2.689918 0.041004
v 0.301740 -2.659012 -0.024689
v 0.324535 -2.723541 0.201836
v 0.249910 -3.019412 0.097585
v 0.362490 -2.970450 -0.097286
v 0.210479 -2.959324 -0.110967
v 0.184152 -2.990157 -0.067376
v 0.301740 -2.959251 -0.133069
v 0.324535 -3.023781 0.102702
v 0.400453 -3.236473 -0.185961
v 0.162101 -3.225347 -0.199641
v 0.135774 -3.216769 -0.156050
v 0.253362 -3.225274 -0.221743
v 0.344058 -3.265049 0.602255
v 0.162101 -3.264758 0.588575
v 0.253362 -3.264685 0.596031
v 0.314267 -3.157191 0.537885
v 0.216954 -3.156900 0.524204
v 0.265651 -3.156827 0.531660
v 0.328152 -3.068693 0.112302
v 0.242085 -3.068402 0.098622
v 0.360474 -3.114175 0.127198
v 0.376139 -3.248793 0.153860
v 0.146873 -3.237001 0.157870
v 0.179036 -3.118112 0.116090
v 0.363416 -3.087920 -0.012493
v 0.172998 -3.078429 -0.027787
v -0.578317 0.296187 -0.341230
v -0.578317 0.323375 0.127465
v -0.624470 0.461043 -0.247730
v -0.681761 0.534384 0.173884
v -0.533760 0.539158 -0.028966
v -0.578317 0.323375 -0.068753
v -0.292266 0.281864 -0.341230
v -0.292266 0.309052 0.127465
v -0.292266 0.466612 -0.247730
v -0.292266 0.549501 0.173884
v -0.678799 0.071771 -0.467886
v -0.662884 -0.011781 0.210355
v -0.714606 0.015407 -0.068753
v -0.292266 0.181957 -0.388313
v -0.292266 0.022811 0.210355
v -0.570077 -0.743911 0.427526
v -0.301383 -0.261765 0.316454
v -0.837658 -0.701427 -0.325806
v -0.965258 -0.698111 -0.037255
v -0.683459 -0.184584 -0.507981
v -0.817828 0.832652 -0.160862
v -0.817828 0.774299 0.409291
v -0.789183 0.733715 0.040662
v -0.292266 0.836630 -0.160863
v -0.287491 0.701890 0.409291
v -0.899779 1.134344 -0.320230
v -1.023923 0.942309 0.643811
v -1.115786 1.213883 0.750156
v -0.299832 1.124069 -0.312233
v -0.292266 0.925598 0.683598
v -0.714408 1.458441 -0.305395
v -0.935090 0.861470 0.227428
v -1.219214 1.241624 0.353897
v -0.292266 1.140438 0.806936
v -1.003148 1.457616 0.649064
v -1.108515 1.483228 0.302902
v -0.515051 1.636356 0.649064
v -0.296954 1.410172 0.743278
v -0.620418 1.661968 0.302902
v -0.292266 0.181957 -0.388313
v -0.681042 -0.005036 -0.510271
v -0.300859 0.105151 -0.430698
v -0.714538 -0.107778 -0.465596
v -0.716782 -0.331937 -0.459631
v -0.681042 -0.005036 -0.510271
v -0.681042 -0.005036 -0.510271
v -0.300854 -0.187545 -0.506054
v -0.303229 0.009115 -0.506879
v -0.298360 -0.336716 -0.456253
v -0.455513 -0.733242 0.439038
v -0.304056 -0.588735 0.353292
v -0.843164 -1.616228 0.697799
v -0.704176 -1.601484 0.700733
v -1.005354 -1.621764 0.374518
v -0.298360 -0.336716 -0.456253
v -0.454144 -0.721186 -0.239061
v -0.454144 -0.721186 -0.239061
v -0.669769 -1.624515 0.325436
v -0.416556 -0.755758 0.099989
v -0.588381 -1.605557 0.548790
v -0.803521 -1.623140 0.261664
v -0.611011 -0.711307 -0.328724
v -0.507571 -0.334327 -0.457942
v -0.690388 0.002677 0.061936
v -0.924259 -1.618996 0.561222
v -0.879740 -0.721011 0.380037
v -0.765526 -1.895387 0.700733
v -0.933682 -1.878072 0.374518
v -0.690157 -1.880822 0.363680
v -0.608769 -1.861864 0.548790
v -0.786557 -1.879447 0.350861
v -0.836743 -1.912899 0.561222
v -0.809400 -2.376978 0.395896
v -1.032280 -2.080966 0.148581
v -0.708636 -2.074610 0.134901
v -0.682308 -2.229182 0.212864
v -0.871449 -2.088847 0.112799
v -0.982190 -2.361093 0.391681
v -0.853011 -2.719172 0.205964
v -0.955590 -2.670211 0.011093
v -0.813579 -2.659085 -0.002587
v -0.787252 -2.689918 0.041004
v -0.904840 -2.659012 -0.024689
v -0.927636 -2.723541 0.201836
v -0.294166 1.623064 -0.269137
v -0.304155 1.864532 -0.070280
v -0.853011 -3.019412 0.097585
v -0.965590 -2.970450 -0.097286
v -0.813579 -2.959324 -0.110967
v -0.787252 -2.990157 -0.067376
v -0.904840 -2.959251 -0.133069
v -0.927636 -3.023781 0.102702
v -1.003553 -3.236473 -0.185961
v -0.765202 -3.225347 -0.199641
v -0.738875 -3.216769 -0.156050
v -0.856462 -3.225274 -0.221743
v -0.947158 -3.265049 0.602255
v -0.765202 -3.264758 0.588575
v -0.856462 -3.264685 0.596031
v -0.917367 -3.157191 0.537885
v -0.820054 -3.156900 0.524204
v -0.868751 -3.156827 0.531660
v -0.931252 -3.068693 0.112302
v -0.845185 -3.068402 0.098622
v -0.963574 -3.114175 0.127198
v -0.979240 -3.248793 0.153860
v -0.749974 -3.237001 0.157870
v -0.782136 -3.118112 0.116090
v -0.966516 -3.087920 -0.012493
v -0.776098 -3.078429 -0.027787
vn 0.965148 0.245521 -0.090487
vn 0.938658 -0.341777 -0.045412
vn 0.887814 -0.406629 0.215430
vn 0.563036 0.531724 -0.632618
vn 0.788995 -0.268899 -0.552385
vn 0.643910 -0.033601 0.764336
vn 0.000000 0.037629 0.999268
vn -0.000732 0.457686 -0.889096
vn 0.000824 0.286721 0.958007
vn 0.682730 0.209357 0.700003
vn 0.934935 0.348277 0.067293
vn 0.621693 0.488693 -0.612049
vn -0.012574 0.322886 0.946318
vn 0.163152 0.313822 0.935331
vn 0.987976 0.111728 -0.106784
vn 0.560289 -0.279427 -0.779717
vn -0.000153 -0.529710 0.848170
vn 0.399762 -0.865047 0.303018
vn 0.760155 -0.648885 -0.033082
vn 0.000000 -0.128452 -0.991699
vn 0.736412 -0.371166 -0.565569
vn 0.000122 0.340739 -0.940123
vn 0.003388 -0.819575 0.572924
vn 0.631764 -0.611530 0.476302
vn 0.984466 -0.173528 -0.025452
vn 0.675344 -0.026917 0.736991
vn 0.814631 -0.552599 -0.176061
vn 0.000031 -0.201392 -0.979492
vn 0.745170 0.034150 -0.665975
vn 0.005432 0.434278 -0.900723
vn 0.284677 0.143498 -0.947813
vn 0.000610 -0.634877 0.772576
vn 0.641743 0.729698 0.235939
vn 0.457808 0.681997 0.570299
vn 0.338755 0.925077 0.171545
vn 0.233070 0.636464 0.735221
vn 0.001160 -0.161901 0.986785
vn 0.000641 0.276864 0.960875
vn 0.897824 0.148900 -0.414350
vn 0.416974 -0.096805 -0.903714
vn -0.004334 0.982543 -0.185858
vn -0.003357 0.766045 0.642750
vn 0.946135 0.297281 0.128147
vn -0.000122 0.333506 -0.942717
vn 0.002258 0.538835 -0.842372
vn 0.394635 -0.192541 -0.898404
vn 0.000000 -0.162786 -0.986633
vn -0.001831 -0.322703 -0.946471
vn 0.011841 0.111850 0.993652
vn -0.386792 0.143712 0.910886
vn -0.378826 0.000977 0.925443
vn 0.490463 -0.009400 0.871395
vn 0.960051 -0.192419 -0.203070
vn 0.653676 0.301828 0.693930
vn 0.876339 0.018403 0.481307
vn -0.970489 -0.240364 -0.018403
vn -0.138371 -0.497482 -0.856349
vn -0.546525 -0.531114 -0.647450
vn -0.964110 -0.088046 0.250435
vn -0.723075 -0.341990 -0.600146
vn -0.000824 -0.442793 -0.896603
vn 0.931608 0.264260 0.249489
vn 0.000000 0.000000 1.000000
vn -0.269082 -0.369640 -0.889340
vn 0.041139 0.303568 -0.951903
vn -0.678823 0.245247 -0.692099
vn 0.086062 -0.427473 -0.899899
vn 0.877010 -0.014679 0.480209
vn 0.951811 0.148778 -0.268136
vn -0.938414 -0.228889 0.258705
vn 0.119083 -0.193823 0.973754
vn 0.796167 0.411664 -0.443373
vn 0.043703 0.500931 -0.864376
vn -0.577960 0.393506 -0.714896
vn -0.982452 -0.183355 -0.033784
vn -0.492935 -0.483657 0.723228
vn 0.726371 -0.308786 0.614002
vn -0.993744 -0.077731 -0.079806
vn 0.198950 0.254585 -0.946348
vn -0.534257 -0.383007 0.753533
vn 0.666860 -0.319102 0.673360
vn -0.593158 0.166662 -0.787622
vn 0.922971 0.061220 -0.379955
vn -0.001831 0.635639 -0.771966
vn -0.592273 -0.066347 0.802972
vn 0.635792 -0.012970 0.771722
vn 0.185766 0.309214 -0.932646
vn -0.598163 0.311777 -0.738212
vn -0.983673 0.177648 -0.027650
vn 0.887783 0.194922 -0.416883
vn -0.040223 -0.504990 -0.862148
vn -0.498642 -0.588305 -0.636555
vn -0.841182 -0.480148 -0.248604
vn -0.065432 -0.504349 0.860988
vn 0.555284 -0.382122 0.738639
vn -0.095614 0.519822 0.848872
vn -0.438795 0.782952 0.440901
vn -0.653920 -0.361736 0.664449
vn 0.434065 0.734764 0.521226
vn 0.916929 0.382977 0.112003
vn 0.591540 0.671102 0.446822
vn -0.539872 0.664876 0.516190
vn -0.823542 0.553331 0.124607
vn 0.973388 0.184179 0.136235
vn 0.670431 -0.481277 -0.564653
vn 0.733787 -0.679128 0.017396
vn -0.942808 0.263192 0.204443
vn -0.965148 0.245521 -0.090487
vn -0.643880 -0.033082 0.764397
vn -0.887875 -0.406842 0.214759
vn -0.563891 0.531388 -0.632130
vn -0.938658 -0.341777 -0.045412
vn -0.789087 -0.268624 -0.552355
vn -0.682333 0.209296 0.700400
vn -0.934935 0.348277 0.067293
vn -0.622517 0.488449 -0.611438
vn -0.163060 0.314005 0.935270
vn -0.987976 0.111728 -0.106784
vn -0.396985 -0.865261 0.306101
vn -0.760155 -0.648885 -0.033082
vn -0.736412 -0.371197 -0.565539
vn -0.630970 -0.611957 0.476821
vn -0.984466 -0.173528 -0.025452
vn -0.814631 -0.552599 -0.176061
vn -0.674825 -0.027070 0.737449
vn -0.745262 0.033967 -0.665883
vn -0.286630 0.146977 -0.946684
vn -0.641743 0.729698 0.235939
vn -0.338755 0.925077 0.171545
vn -0.231758 0.632923 0.738670
vn -0.457442 0.681875 0.570727
vn -0.897824 0.148900 -0.414350
vn -0.416974 -0.096805 -0.903714
vn -0.946379 0.296609 0.127873
vn -0.394635 -0.192541 -0.898404
vn 0.001801 -0.322672 -0.946471
vn 0.388714 0.143010 0.910154
vn 0.378826 0.000977 0.925443
vn -0.490463 -0.009400 0.871395
vn -0.560289 -0.279427 -0.779717
vn -0.960051 -0.192419 -0.203070
vn -0.653676 0.301828 0.693930
vn -0.876339 0.018403 0.481307
vn 0.970489 -0.240364 -0.018403
vn 0.137455 -0.497940 -0.856227
vn -0.086062 -0.427473 -0.899899
vn 0.964110 -0.088046 0.250435
vn 0.545457 -0.532975 -0.646809
vn 0.723075 -0.341990 -0.600146
vn -0.931608 0.264260 0.249489
vn 0.269967 -0.367626 -0.889920
vn -0.041139 0.303568 -0.951903
vn 0.678823 0.245247 -0.692099
vn -0.877010 -0.014679 0.480209
vn 0.938414 -0.228889 0.258705
vn -0.119083 -0.193823 0.973754
vn -0.043703 0.500931 -0.864376
vn -0.796167 0.411664 -0.443373
vn 0.982452 -0.183355 -0.033784
vn 0.492935 -0.483657 0.723228
vn -0.726371 -0.308786 0.614002
vn 0.577960 0.393506 -0.714896
vn 0.993744 -0.077731 -0.079806
vn -0.198950 0.254585 -0.946348
vn 0.534257 -0.383007 0.753533
vn -0.666860 -0.319102 0.673360
vn 0.592273 -0.066347 0.802972
vn -0.635792 -0.012970 0.771722
vn -0.185766 0.309214 -0.932646
vn 0.593158 0.166662 -0.787622
vn 0.983673 0.177648 -0.027650
vn -0.887783 0.194922 -0.416883
vn -0.922971 0.061220 -0.379955
vn 0.040223 -0.504990 -0.862148
vn 0.498642 -0.588305 -0.636555
vn 0.841182 -0.480148 -0.248604
vn 0.598163 0.311777 -0.738212
vn 0.065432 -0.504349 0.860988
vn 0.095614 0.519822 0.848872
vn -0.555284 -0.382122 0.738639
vn 0.653920 -0.361736 0.664449
vn -0.434065 0.734764 0.521226
vn -0.591540 0.671102 0.446822
vn -0.916929 0.382977 0.112003
vn 0.539872 0.664876 0.516190
vn 0.438795 0.782952 0.440901
vn 0.823542 0.553331 0.124607
vn -0.973388 0.184179 0.136235
vn -0.670431 -0.481277 -0.564653
vn 0.942808 0.263192 0.204443
vn 0.815058 -0.579272 -0.008484
vn -0.733787 -0.679128 0.017396
vn 0.003906 0.952116 0.305673
vn -0.815058 -0.579272 -0.008515
vn -0.951811 0.148778 -0.268136
s 1
f 6//1 5//2 4//3
f 1//4 3//5 5//2
f 2//6 4//3 96//7
f 3//5 1//4 95//8
f 103//9 8//10 96//7
f 6//1 2//6 9//11
f 9//11 7//12 6//1
f 95//8 1//4 7//12
f 105//13 10//14 103//9
f 12//15 11//16 7//12
f 98//17 4//3 15//18
f 16//19 15//18 5//2
f 112//20 14//21 97//22
f 5//2 3//5 16//19
f 113//23 15//18 18//24
f 22//25 19//26 21//27
f 21//27 18//24 16//19
f 117//28 17//29 112//20
f 16//19 14//21 17//29
f 17//29 117//28 173//30
f 21//27 17//29 20//31
f 118//32 18//24 19//26
f 24//33 23//34 19//26
f 26//35 25//36 24//33
f 122//37 19//26 126//38
f 25//36 126//38 23//34
f 28//39 13//40 7//12
f 102//41 7//12 128//42
f 128//42 7//12 27//43
f 27//43 136//44 130//45
f 29//46 135//47 13//40
f 29//46 43//48 135//47
f 139//49 32//50 105//13
f 34//51 33//52 32//50
f 12//15 35//53 11//16
f 46//54 10//14 45//55
f 139//49 32//50 39//56
f 42//57 11//16 35//53
f 32//50 39//56 34//51
f 39//56 36//58 40//59
f 36//58 42//57 38//60
f 11//16 42//57 43//48
f 43//48 42//57 137//61
f 9//11 44//62 46//54
f 12//15 46//54 45//55
f 46//54 44//62 10//14
f 29//46 13//40 28//39
f 28//39 7//12 11//16
f 13//40 30//63 27//43
f 13//40 31//64 30//63
f 135//47 136//44 13//40
f 39//56 32//50 139//49
f 51//65 49//66 41//67
f 52//68 48//69 35//53
f 40//59 38//60 49//66
f 50//70 47//71 40//59
f 41//67 35//53 51//65
f 33//52 52//68 45//55
f 51//65 48//69 54//72
f 57//73 55//74 49//66
f 56//75 53//76 47//71
f 53//76 58//77 47//71
f 58//77 54//72 52//68
f 50//70 49//66 55//74
f 56//75 55//74 62//78
f 57//73 54//72 63//79
f 59//80 64//81 58//77
f 63//79 61//82 55//74
f 62//78 59//80 56//75
f 64//81 60//83 54//72
f 173//30 174//84 20//31
f 65//85 70//86 59//80
f 69//87 67//88 61//82
f 68//89 65//85 59//80
f 70//86 66//90 64//81
f 62//78 61//82 68//89
f 63//79 60//83 69//87
f 74//91 72//92 69//87
f 68//89 67//88 73//93
f 69//87 66//90 74//91
f 77//94 75//95 80//96
f 80//96 79//97 76//98
f 78//99 83//100 81//101
f 81//101 82//102 78//99
f 79//97 86//103 76//98
f 82//102 86//103 79//97
f 82//102 81//101 70//86
f 70//86 87//104 66//90
f 87//104 71//105 66//90
f 87//104 83//100 71//105
f 75//95 84//106 83//100
f 88//107 68//89 73//93
f 68//89 88//107 65//85
f 86//103 88//107 73//93
f 74//91 71//105 84//106
f 94//108 90//109 92//110
f 89//111 94//108 93//112
f 90//109 96//7 92//110
f 91//113 97//22 95//8
f 103//9 96//7 100//114
f 94//108 101//115 90//109
f 101//115 94//108 99//116
f 95//8 102//41 99//116
f 105//13 103//9 104//117
f 107//118 101//115 99//116
f 98//17 113//23 110//119
f 111//120 93//112 110//119
f 112//20 97//22 109//121
f 93//112 111//120 91//113
f 113//23 118//32 115//122
f 121//123 120//124 116//125
f 120//124 111//120 115//122
f 117//28 112//20 114//126
f 111//120 120//124 114//126
f 114//126 119//127 173//30
f 120//124 121//123 119//127
f 118//32 122//37 116//125
f 124//128 121//123 116//125
f 127//129 124//128 125//130
f 122//37 126//38 116//125
f 125//130 123//131 126//38
f 131//132 99//116 108//133
f 102//41 128//42 99//116
f 128//42 130//45 129//134
f 129//134 130//45 136//44
f 132//135 108//133 135//47
f 132//135 135//47 151//136
f 139//49 105//13 138//137
f 141//138 138//137 140//139
f 107//118 106//140 142//141
f 154//142 153//143 104//117
f 138//137 139//49 147//144
f 150//145 149//146 142//141
f 138//137 141//138 147//144
f 147//144 148//147 144//148
f 144//148 146//149 150//145
f 106//140 132//135 151//136
f 151//136 137//61 150//145
f 101//115 107//118 154//142
f 107//118 142//141 153//143
f 154//142 104//117 152//150
f 132//135 131//132 108//133
f 131//132 132//135 106//140
f 108//133 129//134 133//63
f 108//133 133//63 134//151
f 135//47 108//133 136//44
f 147//144 139//49 138//137
f 159//152 149//146 157//153
f 160//154 153//143 142//141
f 148//147 158//155 157//153
f 158//155 148//147 155//156
f 149//146 159//152 142//141
f 140//139 153//143 160//154
f 159//152 165//157 162//158
f 165//157 159//152 157//153
f 164//159 158//155 155//156
f 161//160 155//156 166//161
f 166//161 160//154 162//158
f 158//155 164//159 163//162
f 164//159 170//163 163//162
f 165//157 171//164 162//158
f 167//165 161//160 166//161
f 171//164 165//157 163//162
f 170//163 164//159 167//165
f 172//166 166//161 162//158
f 173//30 119//127 174//84
f 175//167 167//165 180//168
f 179//169 171//164 169//170
f 178//171 170//163 167//165
f 180//168 172//166 176//172
f 170//163 178//171 169//170
f 171//164 179//169 168//173
f 184//174 179//169 182//175
f 178//171 183//176 177//177
f 179//169 184//174 176//172
f 187//178 190//179 185//180
f 190//179 187//178 186//181
f 188//182 191//183 193//184
f 191//183 188//182 192//185
f 189//186 186//181 196//187
f 192//185 189//186 196//187
f 192//185 175//167 180//168
f 180//168 176//172 197//188
f 197//188 176//172 181//189
f 197//188 181//189 193//184
f 185//180 188//182 193//184
f 198//190 183//176 178//171
f 198//190 178//171 175//167
f 196//187 195//191 183//176
f 181//189 184//174 194//192
f 2//6 6//1 4//3
f 6//1 1//4 5//2
f 4//3 98//17 96//7
f 97//22 3//5 95//8
f 8//10 2//6 96//7
f 2//6 8//10 44//62
f 9//11 2//6 44//62
f 7//12 1//4 6//1
f 102//41 95//8 7//12
f 10//14 8//10 103//9
f 9//11 12//15 7//12
f 113//23 98//17 15//18
f 15//18 4//3 5//2
f 14//21 3//5 97//22
f 3//5 14//21 16//19
f 118//32 113//23 18//24
f 19//26 18//24 21//27
f 18//24 15//18 16//19
f 17//29 14//21 112//20
f 21//27 16//19 17//29
f 20//31 17//29 173//30
f 22//25 21//27 20//31
f 122//37 118//32 19//26
f 22//25 24//33 19//26
f 25//36 23//34 24//33
f 19//26 23//34 126//38
f 13//40 27//43 7//12
f 130//45 128//42 27//43
f 43//48 137//61 135//47
f 32//50 10//14 105//13
f 33//52 10//14 32//50
f 10//14 33//52 45//55
f 143//193 139//49 39//56
f 36//58 143//193 39//56
f 41//67 42//57 35//53
f 39//56 40//59 34//51
f 36//58 38//60 40//59
f 42//57 41//67 38//60
f 29//46 11//16 43//48
f 42//57 36//58 137//61
f 12//15 9//11 46//54
f 35//53 12//15 45//55
f 44//62 8//10 10//14
f 29//46 28//39 11//16
f 136//44 31//64 13//40
f 36//58 39//56 137//61
f 39//56 139//49 137//61
f 49//66 38//60 41//67
f 45//55 52//68 35//53
f 50//70 40//59 49//66
f 47//71 34//51 40//59
f 35//53 48//69 51//65
f 34//51 47//71 52//68
f 33//52 34//51 52//68
f 57//73 51//65 54//72
f 51//65 57//73 49//66
f 50//70 56//75 47//71
f 58//77 52//68 47//71
f 54//72 48//69 52//68
f 56//75 50//70 55//74
f 55//74 61//82 62//78
f 54//72 60//83 63//79
f 53//76 59//80 58//77
f 57//73 63//79 55//74
f 59//80 53//76 56//75
f 58//77 64//81 54//72
f 70//86 64//81 59//80
f 63//79 69//87 61//82
f 62//78 68//89 59//80
f 66//90 60//83 64//81
f 61//82 67//88 68//89
f 60//83 66//90 69//87
f 72//92 67//88 69//87
f 67//88 72//92 73//93
f 66//90 71//105 74//91
f 75//95 78//99 80//96
f 77//94 80//96 76//98
f 82//102 79//97 78//99
f 86//103 85//194 76//98
f 65//85 82//102 70//86
f 81//101 83//100 87//104
f 70//86 81//101 87//104
f 83//100 84//106 71//105
f 78//99 75//95 83//100
f 88//107 86//103 82//102
f 65//85 88//107 82//102
f 85//194 86//103 73//93
f 72//92 74//91 73//93
f 74//91 84//106 73//93
f 73//93 84//106 85//194
f 85//194 84//106 76//98
f 84//106 75//95 77//94
f 76//98 84//106 77//94
f 93//112 94//108 92//110
f 91//113 89//111 93//112
f 96//7 98//17 92//110
f 89//111 91//113 95//8
f 96//7 90//109 100//114
f 101//115 152//150 90//109
f 152//150 100//114 90//109
f 94//108 89//111 99//116
f 89//111 95//8 99//116
f 103//9 100//114 104//117
f 106//140 107//118 99//116
f 92//110 98//17 110//119
f 93//112 92//110 110//119
f 97//22 91//113 109//121
f 111//120 109//121 91//113
f 110//119 113//23 115//122
f 120//124 115//122 116//125
f 111//120 110//119 115//122
f 112//20 109//121 114//126
f 109//121 111//120 114//126
f 117//28 114//126 173//30
f 114//126 120//124 119//127
f 115//122 118//32 116//125
f 123//131 124//128 116//125
f 124//128 123//131 125//130
f 126//38 123//131 116//125
f 99//116 129//134 108//133
f 99//116 128//42 129//134
f 135//47 137//61 151//136
f 105//13 104//117 138//137
f 138//137 104//117 140//139
f 153//143 140//139 104//117
f 139//49 143//193 147//144
f 143//193 144//148 147//144
f 106//140 150//145 142//141
f 141//138 148//147 147//144
f 148//147 146//149 144//148
f 146//149 149//146 150//145
f 150//145 106//140 151//136
f 137//61 144//148 150//145
f 152//150 101//115 154//142
f 154//142 107//118 153//143
f 104//117 100//114 152//150
f 99//116 131//132 106//140
f 108//133 134//151 136//44
f 144//148 137//61 147//144
f 137//61 139//49 147//144
f 149//146 146//149 157//153
f 156//195 160//154 142//141
f 146//149 148//147 157//153
f 148//147 141//138 155//156
f 159//152 156//195 142//141
f 141//138 140//139 160//154
f 155//156 141//138 160//154
f 156//195 159//152 162//158
f 163//162 165//157 157//153
f 161//160 164//159 155//156
f 155//156 160//154 166//161
f 160//154 156//195 162//158
f 157//153 158//155 163//162
f 170//163 169//170 163//162
f 171//164 168//173 162//158
f 172//166 167//165 166//161
f 169//170 171//164 163//162
f 164//159 161//160 167//165
f 168//173 172//166 162//158
f 167//165 172//166 180//168
f 177//177 179//169 169//170
f 175//167 178//171 167//165
f 172//166 168//173 176//172
f 178//171 177//177 169//170
f 179//169 176//172 168//173
f 179//169 177//177 182//175
f 183//176 182//175 177//177
f 184//174 181//189 176//172
f 190//179 188//182 185//180
f 189//186 190//179 186//181
f 188//182 189//186 192//185
f 186//181 195//191 196//187
f 191//183 192//185 180//168
f 191//183 180//168 197//188
f 193//184 191//183 197//188
f 181//189 194//192 193//184
f 194//192 185//180 193//184
f 196//187 198//190 192//185
f 198//190 175//167 192//185
f 198//190 196//187 183//176
f 184//174 182//175 183//176
f 194//192 184//174 183//176
f 194//192 183//176 195//191
f 194//192 195//191 186//181
f 185//180 194//192 187//178
f 194//192 186//181 187//178
l 137 143
l 36 37
l 37 38
l 144 145
l 145 146
