# Blender v2.68 (sub 0) OBJ File: 'model 2.blend'
# www.blender.org
v -0.024783 0.296187 -0.341230
v -0.024783 0.323375 0.127465
v 0.021370 0.461043 -0.247730
v 0.078661 0.534384 0.173884
v -0.069340 0.539158 -0.028966
v -0.024783 0.323375 -0.068753
v 0.075698 0.071771 -0.467886
v 0.059784 -0.011781 0.210355
v 0.111506 0.015407 -0.068753
v -0.033023 -0.743911 0.427526
v 0.234558 -0.701427 -0.325806
v 0.362158 -0.698111 -0.037255
v 0.080358 -0.184584 -0.507981
v 0.214728 0.832652 -0.160862
v 0.214728 0.774299 0.409291
v 0.186082 0.733715 0.040662
v 0.296679 1.134344 -0.320230
v 0.420822 0.942309 0.643811
v 0.512686 1.213883 0.750156
v 0.111307 1.458441 -0.305395
v 0.331990 0.861470 0.227428
v 0.616114 1.241624 0.353897
v 0.400048 1.457616 0.649064
v 0.505415 1.483228 0.302902
v -0.088050 1.636356 0.649064
v 0.017317 1.661968 0.302902
v 0.077942 -0.005036 -0.510271
v 0.111438 -0.107778 -0.465596
v 0.113681 -0.331937 -0.459631
v 0.077942 -0.005036 -0.510271
v 0.077942 -0.005036 -0.510271
v -0.147588 -0.733242 0.439038
v 0.240063 -1.616228 0.697799
v 0.101076 -1.601484 0.700733
v 0.402254 -1.621764 0.374518
v -0.148956 -0.721186 -0.239061
v -0.148956 -0.721186 -0.239061
v 0.066669 -1.624515 0.325436
v -0.186544 -0.755758 0.099989
v -0.014719 -1.605557 0.548790
v 0.200420 -1.623140 0.261664
v 0.007910 -0.711307 -0.328724
v -0.095529 -0.334327 -0.457942
v 0.087288 0.002677 0.061936
v 0.321159 -1.618996 0.561222
v 0.276640 -0.721011 0.380037
v 0.162425 -1.895387 0.700733
v 0.330582 -1.878072 0.374518
v 0.087057 -1.880822 0.363680
v 0.005669 -1.861864 0.548790
v 0.183457 -1.879447 0.350861
v 0.233643 -1.912899 0.561222
v 0.206300 -2.376978 0.395896
v 0.429179 -2.080966 0.148581
v 0.105535 -2.074610 0.134901
v 0.079208 -2.229182 0.212864
v 0.268348 -2.088847 0.112799
v 0.379090 -2.361093 0.391681
v 0.249910 -2.719172 0.205964
v 0.352489 -2.670211 0.011093
v 0.210479 -2.659085 -0.002587
v 0.184152 -2.689918 0.041004
v 0.301740 -2.659012 -0.024689
v 0.324535 -2.723541 0.201836
v 0.249910 -3.019412 0.097585
v 0.362490 -2.970450 -0.097286
v 0.210479 -2.959324 -0.110967
v 0.184152 -2.990157 -0.067376
v 0.301740 -2.959251 -0.133069
v 0.324535 -3.023781 0.102702
v 0.400453 -3.236473 -0.185961
v 0.162101 -3.225347 -0.199641
v 0.135774 -3.216769 -0.156050
v 0.253362 -3.225274 -0.221743
v 0.344058 -3.265049 0.602255
v 0.162101 -3.264758 0.588575
v 0.253362 -3.264685 0.596031
v 0.314267 -3.157191 0.537885
v 0.216954 -3.156900 0.524204
v 0.265651 -3.156827 0.531660
v 0.328152 -3.068693 0.112302
v 0.242085 -3.068402 0.098622
v 0.360474 -3.114175 0.127198
v 0.376139 -3.248793 0.153860
v 0.146873 -3.237001 0.157870
v 0.179036 -3.118112 0.116090
v 0.363416 -3.087920 -0.012493
v 0.172998 -3.078429 -0.027787
v -0.578317 0.296187 -0.341230
v -0.578317 0.323375 0.127465
v -0.624470 0.461043 -0.247730
v -0.681761 0.534384 0.173884
v -0.533760 0.539158 -0.028966
v -0.578317 0.323375 -0.068753
v -0.292266 0.281864 -0.341230
v -0.292266 0.309052 0.127465
v -0.292266 0.466612 -0.247730
v -0.292266 0.549501 0.173884
v -0.678799 0.071771 -0.467886
v -0.662884 -0.011781 0.210355
v -0.714606 0.015407 -0.068753
v -0.292266 0.181957 -0.388313
v -0.292266 0.022811 0.210355
v -0.570077 -0.743911 0.427526
v -0.301383 -0.261765 0.316454
v -0.837658 -0.701427 -0.325806
v -0.965258 -0.698111 -0.037255
v -0.683459 -0.184584 -0.507981
v -0.817828 0.832652 -0.160862
v -0.817828 0.774299 0.409291
v -0.789183 0.733715 0.040662
v -0.292266 0.836630 -0.160863
v -0.287491 0.701890 0.409291
v -0.899779 1.134344 -0.320230
v -1.023923 0.942309 0.643811
v -1.115786 1.213883 0.750156
v -0.299832 1.124069 -0.312233
v -0.292266 0.925598 0.683598
v -0.714408 1.458441 -0.305395
v -0.935090 0.861470 0.227428
v -1.219214 1.241624 0.353897
v -0.292266 1.140438 0.806936
v -1.003148 1.457616 0.649064
v -1.108515 1.483228 0.302902
v -0.515051 1.636356 0.649064
v -0.296954 1.410172 0.743278
v -0.620418 1.661968 0.302902
v -0.292266 0.181957 -0.388313
v -0.681042 -0.005036 -0.510271
v -0.300859 0.105151 -0.430698
v -0.714538 -0.107778 -0.465596
v -0.716782 -0.331937 -0.459631
v -0.681042 -0.005036 -0.510271
v -0.681042 -0.005036 -0.510271
v -0.300854 -0.187545 -0.506054
v -0.303229 0.009115 -0.506879
v -0.298360 -0.336716 -0.456253
v -0.455513 -0.733242 0.439038
v -0.304056 -0.588735 0.353292
v -0.843164 -1.616228 0.697799
v -0.704176 -1.601484 0.700733
v -1.005354 -1.621764 0.374518
v -0.298360 -0.336716 -0.456253
v -0.454144 -0.721186 -0.239061
v -0.454144 -0.721186 -0.239061
v -0.669769 -1.624515 0.325436
v -0.416556 -0.755758 0.099989
v -0.588381 -1.605557 0.548790
v -0.803521 -1.623140 0.261664
v -0.611011 -0.711307 -0.328724
v -0.507571 -0.334327 -0.457942
v -0.690388 0.002677 0.061936
v -0.924259 -1.618996 0.561222
v -0.879740 -0.721011 0.380037
v -0.765526 -1.895387 0.700733
v -0.933682 -1.878072 0.374518
v -0.690157 -1.880822 0.363680
v -0.608769 -1.861864 0.548790
v -0.786557 -1.879447 0.350861
v -0.836743 -1.912899 0.561222
v -0.809400 -2.376978 0.395896
v -1.032280 -2.080966 0.148581
v -0.708636 -2.074610 0.134901
v -0.682308 -2.229182 0.212864
v -0.871449 -2.088847 0.112799
v -0.982190 -2.361093 0.391681
v -0.853011 -2.719172 0.205964
v -0.955590 -2.670211 0.011093
v -0.813579 -2.659085 -0.002587
v -0.787252 -2.689918 0.041004
v -0.904840 -2.659012 -0.024689
v -0.927636 -2.723541 0.201836
v -0.294166 1.623064 -0.269137
v -0.304155 1.864532 -0.070280
v -0.853011 -3.019412 0.097585
v -0.965590 -2.970450 -0.097286
v -0.813579 -2.959324 -0.110967
v -0.787252 -2.990157 -0.067376
v -0.904840 -2.959251 -0.133069
v -0.927636 -3.023781 0.102702
v -1.003553 -3.236473 -0.185961
v -0.765202 -3.225347 -0.199641
v -0.738875 -3.216769 -0.156050
v -0.856462 -3.225274 -0.221743
v -0.947158 -3.265049 0.602255
v -0.765202 -3.264758 0.588575
v -0.856462 -3.264685 0.596031
v -0.917367 -3.157191 0.537885
v -0.820054 -3.156900 0.524204
v -0.868751 -3.156827 0.531660
v -0.931252 -3.068693 0.112302
v -0.845185 -3.068402 0.098622
v -0.963574 -3.114175 0.127198
v -0.979240 -3.248793 0.153860
v -0.749974 -3.237001 0.157870
v -0.782136 -3.118112 0.116090
v -0.966516 -3.087920 -0.012493
v -0.776098 -3.078429 -0.027787
vn 0.970336 0.234596 0.057955
vn 0.939695 -0.340098 -0.035340
vn 0.714469 0.128483 0.687735
vn 0.562914 0.477950 -0.674245
vn 0.825831 0.058046 -0.560869
vn 0.626972 -0.746879 0.221442
vn -0.000275 -0.569750 0.821802
vn 0.000000 0.349406 -0.936949
vn 0.000946 0.302316 0.953185
vn 0.597339 0.361827 0.715690
vn 0.946776 0.319651 0.036958
vn 0.636647 0.490555 -0.594928
vn -0.000732 0.438581 -0.898679
vn -0.002930 0.986999 -0.160680
vn -0.000092 0.271065 0.962554
vn 0.093600 0.316019 0.944090
vn 0.980193 0.143834 -0.136082
vn 0.596851 -0.207709 -0.774987
vn 0.002777 -0.784936 0.619556
vn 0.731376 -0.653371 -0.195318
vn 0.413190 -0.837031 0.358592
vn -0.000031 -0.128910 -0.991638
vn 0.608448 -0.500931 -0.615467
vn 0.000793 -0.657613 0.753319
vn 0.996979 -0.074953 0.019623
vn 0.646687 0.032716 0.762017
vn 0.530656 -0.671346 0.517350
vn 0.756218 -0.644887 -0.110538
vn 0.000000 -0.211493 -0.977355
vn 0.584826 -0.105167 -0.804285
vn 0.236885 0.266366 -0.934294
vn 0.001312 -0.129063 0.991607
vn 0.644948 0.722221 0.249733
vn 0.457533 0.668874 0.585864
vn 0.338755 0.925077 0.171545
vn 0.233070 0.636464 0.735221
vn 0.000214 0.250221 0.968169
vn 0.936644 0.107364 -0.333415
vn 0.415204 -0.108829 -0.903165
vn 0.874416 0.427168 -0.229957
vn -0.004303 0.766076 0.642689
vn 0.001648 0.538804 -0.842402
vn -0.000092 0.334635 -0.942320
vn 0.396863 -0.187597 -0.898465
vn 0.000000 -0.163976 -0.986450
vn -0.032167 -0.367016 -0.929624
vn 0.003418 0.171270 0.985198
vn -0.334391 0.407788 0.849605
vn -0.389874 0.072298 0.917997
vn 0.521989 0.050050 0.851436
vn 0.962828 -0.195807 -0.185980
vn 0.678915 0.302164 0.669149
vn -0.965392 -0.254006 -0.058870
vn -0.191046 -0.461654 -0.866207
vn 0.031343 -0.441145 -0.896878
vn -0.968993 -0.134678 0.206977
vn -0.526627 -0.492080 -0.693167
vn -0.714774 -0.341166 -0.610462
vn 0.929197 0.308969 0.202612
vn 0.000000 0.000000 1.000000
vn -0.185827 -0.308512 -0.932859
vn -0.026765 0.307779 -0.951048
vn -0.697745 0.181951 -0.692831
vn 0.847072 -0.179144 0.500351
vn 0.959105 0.137730 -0.247169
vn 0.887082 -0.058748 0.457839
vn -0.950865 -0.202338 0.234291
vn 0.083041 -0.374401 0.923521
vn 0.050813 0.484268 -0.873409
vn -0.607471 0.391278 -0.691275
vn -0.980956 -0.179479 -0.074099
vn -0.455763 -0.470626 0.755486
vn 0.693503 -0.280679 0.663503
vn 0.786920 0.394330 -0.474563
vn -0.594836 0.182501 -0.782830
vn 0.916623 0.085665 -0.390393
vn -0.539720 -0.385327 0.748466
vn 0.660207 -0.347575 0.665761
vn 0.209998 0.292673 -0.932829
vn -0.994873 -0.066958 -0.075655
vn 0.005310 0.442366 -0.896786
vn -0.001831 0.635639 -0.771966
vn -0.556749 0.041993 0.829585
vn 0.624531 0.094699 0.775201
vn 0.158452 0.342814 -0.925932
vn -0.602313 0.303812 -0.738151
vn -0.984558 0.169683 -0.042390
vn 0.898709 0.222449 -0.377880
vn -0.059603 -0.514512 -0.855373
vn -0.512192 -0.580920 -0.632557
vn 0.674734 -0.498398 -0.544328
vn -0.079012 -0.503067 0.860591
vn 0.571825 -0.381542 0.726218
vn 0.465255 0.730949 0.499191
vn -0.117252 0.518754 0.846828
vn -0.461135 0.771538 0.438185
vn 0.931608 0.334880 0.141209
vn 0.049532 0.565477 0.823267
vn -0.060121 0.499924 0.863948
vn -0.835963 0.515336 0.188543
vn -0.820460 -0.570910 0.029176
vn 0.976806 0.170568 0.129307
vn 0.741661 -0.669973 0.032411
vn -0.943876 0.279641 0.175695
vn -0.842067 -0.465682 -0.272073
vn -0.970336 0.234596 0.057955
vn -0.714499 0.128300 0.687735
vn -0.939695 -0.340098 -0.035340
vn -0.563585 0.478408 -0.673360
vn -0.825739 0.058046 -0.561022
vn -0.000092 0.053255 0.998566
vn -0.946776 0.319651 0.036958
vn -0.596973 0.362041 0.715903
vn -0.980193 0.143834 -0.136082
vn -0.596851 -0.207709 -0.774987
vn -0.627125 -0.746361 0.222755
vn -0.731376 -0.653371 -0.195318
vn -0.608448 -0.500961 -0.615467
vn -0.411298 -0.837733 0.359172
vn -0.996979 -0.074953 0.019623
vn -0.756218 -0.644887 -0.110538
vn -0.530045 -0.671255 0.518082
vn -0.584857 -0.105167 -0.804254
vn -0.236610 0.267129 -0.934141
vn -0.644948 0.722221 0.249733
vn -0.457137 0.668844 0.586200
vn -0.338755 0.925077 0.171545
vn -0.231758 0.632923 0.738701
vn -0.936644 0.107364 -0.333415
vn -0.636982 0.490219 -0.594897
vn -0.874477 0.427076 -0.229865
vn -0.396863 -0.187628 -0.898465
vn -0.415204 -0.108829 -0.903165
vn 0.032167 -0.367046 -0.929624
vn -0.093570 0.316141 0.944060
vn 0.389874 0.072298 0.917997
vn 0.336009 0.404614 0.850490
vn -0.962828 -0.195807 -0.185980
vn -0.678915 0.302164 0.669149
vn -0.887082 -0.058748 0.457839
vn -0.521989 0.050050 0.851436
vn 0.965392 -0.254006 -0.058870
vn 0.191046 -0.461654 -0.866207
vn -0.031343 -0.441145 -0.896878
vn 0.968993 -0.134678 0.206977
vn 0.714774 -0.341166 -0.610462
vn 0.525163 -0.492325 -0.694082
vn -0.000641 -0.478591 -0.878018
vn -0.929197 0.308969 0.202612
vn 0.185095 -0.305185 -0.934111
vn 0.026765 0.307779 -0.951048
vn -0.847072 -0.179144 0.500351
vn -0.959105 0.137730 -0.247169
vn 0.950865 -0.202338 0.234291
vn -0.050813 0.484268 -0.873409
vn 0.607471 0.391278 -0.691275
vn 0.980956 -0.179479 -0.074099
vn 0.455763 -0.470626 0.755486
vn -0.083041 -0.374401 0.923521
vn -0.693503 -0.280679 0.663503
vn 0.697745 0.181951 -0.692831
vn 0.994873 -0.066958 -0.075655
vn 0.594836 0.182501 -0.782830
vn -0.209998 0.292673 -0.932829
vn -0.916623 0.085665 -0.390393
vn 0.539720 -0.385327 0.748466
vn -0.660207 -0.347575 0.665761
vn 0.556749 0.041993 0.829585
vn -0.158452 0.342814 -0.925932
vn 0.602313 0.303812 -0.738151
vn 0.984558 0.169683 -0.042390
vn -0.624531 0.094699 0.775201
vn -0.898709 0.222449 -0.377880
vn 0.059603 -0.514512 -0.855373
vn 0.842067 -0.465682 -0.272073
vn 0.512192 -0.580920 -0.632557
vn -0.674734 -0.498398 -0.544328
vn 0.079012 -0.503067 0.860591
vn 0.117252 0.518754 0.846828
vn -0.465255 0.730949 0.499191
vn 0.461135 0.771538 0.438185
vn -0.049532 0.565477 0.823267
vn -0.931608 0.334880 0.141209
vn 0.665670 -0.353648 0.657094
vn 0.820460 -0.570910 0.029176
vn 0.060121 0.499924 0.863948
vn 0.835963 0.515336 0.188543
vn -0.976806 0.170568 0.129307
vn -0.741661 -0.669973 0.032411
vn -0.571825 -0.381542 0.726218
vn 0.943876 0.279641 0.175695
vn 0.004913 0.954772 0.297250
vn -0.665670 -0.353679 0.657094
vn -0.646199 0.032441 0.762444
vn -0.786920 0.394330 -0.474563
s 1
f 6//1 5//2 2//3
f 1//4 3//5 6//1
f 2//3 4//6 98//7
f 3//5 1//4 97//8
f 103//9 8//10 2//3
f 6//1 2//3 9//11
f 9//11 7//12 1//4
f 95//13 1//4 102//14
f 105//15 10//16 8//10
f 12//17 11//18 9//11
f 98//7 4//6 113//19
f 16//20 15//21 4//6
f 112//22 14//23 3//5
f 5//2 3//5 14//23
f 113//19 15//21 118//24
f 22//25 19//26 18//27
f 21//28 18//27 15//21
f 117//29 17//30 14//23
f 16//20 14//23 21//28
f 17//30 117//29 20//31
f 21//28 17//30 22//25
f 118//24 18//27 122//32
f 24//33 23//34 22//25
f 26//35 25//36 23//34
f 122//32 19//26 23//34
f 25//36 126//37 23//34
f 28//38 13//39 27//40
f 102//14 7//12 128//41
f 128//41 7//12 130//42
f 27//40 136//43 130//42
f 29//44 135//45 13//39
f 29//44 43//46 135//45
f 139//47 32//48 10//16
f 34//49 33//50 10//16
f 12//17 35//51 11//18
f 46//52 10//16 33//50
f 139//47 32//48 39//53
f 42//54 11//18 41//55
f 32//48 39//53 40//56
f 39//53 36//57 38//58
f 36//57 42//54 41//55
f 11//18 42//54 29//44
f 43//46 42//54 36//57
f 9//11 44//59 12//17
f 12//17 46//52 35//51
f 46//52 44//59 8//10
f 29//44 13//39 28//38
f 28//38 7//12 11//18
f 13//39 30//60 27//40
f 13//39 31//61 30//60
f 135//45 136//43 31//61
f 39//53 32//48 139//47
f 51//62 49//63 38//58
f 52//64 48//65 45//66
f 40//56 38//58 50//67
f 50//67 47//68 34//49
f 41//55 35//51 48//65
f 33//50 52//64 45//66
f 51//62 48//65 57//69
f 57//69 55//70 51//62
f 56//71 53//72 50//67
f 53//72 58//73 52//64
f 58//73 54//74 48//65
f 50//67 49//63 56//71
f 56//71 55//70 61//75
f 57//69 54//74 60//76
f 59//77 64//78 53//72
f 63//79 61//75 57//69
f 62//80 59//77 53//72
f 64//78 60//76 58//73
f 173//81 174//82 20//31
f 65//83 70//84 64//78
f 69//85 67//86 63//79
f 68//87 65//83 62//80
f 70//84 66//88 60//76
f 62//80 61//75 67//86
f 63//79 60//76 66//88
f 74//89 72//90 67//86
f 68//87 67//86 72//90
f 69//85 66//88 71//91
f 77//92 75//93 78//94
f 80//95 79//96 77//92
f 78//94 83//97 81//98
f 81//98 82//99 79//96
f 79//96 86//100 85//101
f 82//99 86//100 79//96
f 82//99 81//98 65//83
f 70//84 87//102 66//88
f 87//102 71//91 66//88
f 87//102 83//97 84//103
f 75//93 84//103 78//94
f 88//104 68//87 73//105
f 68//87 88//104 65//83
f 86//100 88//104 85//101
f 74//89 71//91 84//103
f 94//106 90//107 93//108
f 89//109 94//106 91//110
f 90//107 96//111 98//7
f 91//110 97//8 89//109
f 103//9 96//111 90//107
f 94//106 101//112 90//107
f 101//112 94//106 89//109
f 95//13 102//14 89//109
f 105//15 103//9 100//113
f 107//114 101//112 106//115
f 98//7 113//19 92//116
f 111//117 93//108 92//116
f 112//22 97//8 91//110
f 93//108 111//117 109//118
f 113//19 118//24 110//119
f 121//120 120//121 115//122
f 120//121 111//117 110//119
f 117//29 112//22 109//118
f 111//117 120//121 109//118
f 114//123 119//124 117//29
f 120//121 121//120 114//123
f 118//24 122//32 115//122
f 124//125 121//120 123//126
f 127//127 124//125 123//126
f 122//32 126//37 123//126
f 125//128 123//126 126//37
f 131//129 99//130 129//131
f 102//14 128//41 99//130
f 128//41 130//42 99//130
f 129//131 130//42 136//43
f 132//132 108//133 135//45
f 132//132 135//45 151//134
f 139//47 105//15 104//135
f 141//136 138//137 104//135
f 107//114 106//115 142//138
f 154//139 153//140 140//141
f 138//137 139//47 147//142
f 150//143 149//144 106//115
f 138//137 141//136 148//145
f 147//142 148//145 146//146
f 144//147 146//146 149//144
f 106//115 132//132 150//143
f 151//134 137//148 144//147
f 101//112 107//114 152//149
f 107//114 142//138 154//139
f 154//139 104//135 100//113
f 132//132 131//129 108//133
f 131//129 132//132 106//115
f 108//133 129//131 133//60
f 108//133 133//60 134//150
f 135//45 108//133 134//150
f 147//142 139//47 138//137
f 159//151 149//144 146//146
f 160//152 153//140 156//153
f 148//145 158//154 146//146
f 158//154 148//145 141//136
f 149//144 159//151 156//153
f 140//141 153//140 160//152
f 159//151 165//155 156//153
f 165//155 159//151 163//156
f 164//157 158//154 161//158
f 161//158 155//159 160//152
f 166//160 160//152 156//153
f 158//154 164//157 157//161
f 164//157 170//162 169//163
f 165//155 171//164 168//165
f 167//166 161//158 172//167
f 171//164 165//155 169//163
f 170//162 164//157 161//158
f 172//167 166//160 168//165
f 173//81 119//124 174//82
f 175//168 167//166 172//167
f 179//169 171//164 177//170
f 178//171 170//162 175//168
f 180//172 172//167 168//165
f 170//162 178//171 177//170
f 171//164 179//169 176//173
f 184//174 179//169 177//170
f 178//171 183//175 182//176
f 179//169 184//174 181//177
f 187//178 190//179 188//180
f 190//179 187//178 189//181
f 188//180 191//182 193//183
f 191//182 188//180 189//181
f 189//181 186//184 195//185
f 192//186 189//181 196//187
f 192//186 175//168 191//182
f 180//172 176//173 197//188
f 197//188 176//173 181//177
f 197//188 181//177 194//189
f 185//190 188//180 194//189
f 198//191 183//175 178//171
f 198//191 178//171 175//168
f 196//187 195//185 198//191
f 181//177 184//174 194//189
f 5//2 4//6 2//3
f 3//5 5//2 6//1
f 96//111 2//3 98//7
f 1//4 95//13 97//8
f 96//111 103//9 2//3
f 2//3 8//10 44//59
f 9//11 2//3 44//59
f 6//1 9//11 1//4
f 1//4 7//12 102//14
f 103//9 105//15 8//10
f 11//18 7//12 9//11
f 4//6 15//21 113//19
f 5//2 16//20 4//6
f 97//8 112//22 3//5
f 16//20 5//2 14//23
f 15//21 18//27 118//24
f 21//28 22//25 18//27
f 16//20 21//28 15//21
f 112//22 117//29 14//23
f 14//23 17//30 21//28
f 117//29 173//81 20//31
f 17//30 20//31 22//25
f 18//27 19//26 122//32
f 23//34 19//26 22//25
f 24//33 26//35 23//34
f 126//37 122//32 23//34
f 7//12 28//38 27//40
f 7//12 27//40 130//42
f 43//46 137//148 135//45
f 105//15 139//47 10//16
f 32//48 34//49 10//16
f 45//66 46//52 33//50
f 143//192 139//47 36//57
f 139//47 39//53 36//57
f 11//18 35//51 41//55
f 34//49 32//48 40//56
f 40//56 39//53 38//58
f 38//58 36//57 41//55
f 42//54 43//46 29//44
f 137//148 43//46 36//57
f 44//59 46//52 12//17
f 46//52 45//66 35//51
f 10//16 46//52 8//10
f 29//44 28//38 11//18
f 13//39 135//45 31//61
f 36//57 39//53 139//47
f 137//148 36//57 139//47
f 41//55 51//62 38//58
f 48//65 35//51 45//66
f 38//58 49//63 50//67
f 40//56 50//67 34//49
f 51//62 41//55 48//65
f 34//49 47//68 33//50
f 47//68 52//64 33//50
f 48//65 54//74 57//69
f 55//70 49//63 51//62
f 53//72 47//68 50//67
f 47//68 53//72 52//64
f 52//64 58//73 48//65
f 49//63 55//70 56//71
f 62//80 56//71 61//75
f 63//79 57//69 60//76
f 64//78 58//73 53//72
f 61//75 55//70 57//69
f 56//71 62//80 53//72
f 60//76 54//74 58//73
f 59//77 65//83 64//78
f 67//86 61//75 63//79
f 65//83 59//77 62//80
f 64//78 70//84 60//76
f 68//87 62//80 67//86
f 69//85 63//79 66//88
f 69//85 74//89 67//86
f 73//105 68//87 72//90
f 74//89 69//85 71//91
f 80//95 77//92 78//94
f 79//96 76//193 77//92
f 78//94 81//98 79//96
f 76//193 79//96 85//101
f 81//98 70//84 65//83
f 81//98 83//97 70//84
f 83//97 87//102 70//84
f 71//91 87//102 84//103
f 84//103 83//97 78//94
f 88//104 86//100 65//83
f 86//100 82//99 65//83
f 88//104 73//105 85//101
f 72//90 74//89 73//105
f 74//89 84//103 73//105
f 73//105 84//103 85//101
f 85//101 84//103 76//193
f 84//103 75//93 77//92
f 76//193 84//103 77//92
f 90//107 92//116 93//108
f 94//106 93//108 91//110
f 92//116 90//107 98//7
f 97//8 95//13 89//109
f 100//113 103//9 90//107
f 101//112 152//149 90//107
f 152//149 100//113 90//107
f 99//130 101//112 89//109
f 102//14 99//130 89//109
f 104//135 105//15 100//113
f 101//112 99//130 106//115
f 113//19 110//119 92//116
f 110//119 111//117 92//116
f 109//118 112//22 91//110
f 91//110 93//108 109//118
f 118//24 115//122 110//119
f 116//194 121//120 115//122
f 115//122 120//121 110//119
f 114//123 117//29 109//118
f 120//121 114//123 109//118
f 119//124 173//81 117//29
f 121//120 119//124 114//123
f 122//32 116//194 115//122
f 121//120 116//194 123//126
f 125//128 127//127 123//126
f 116//194 122//32 123//126
f 108//133 131//129 129//131
f 130//42 129//131 99//130
f 135//45 137//148 151//134
f 138//137 139//47 104//135
f 140//141 141//136 104//135
f 104//135 154//139 140//141
f 139//47 143//192 144//147
f 147//142 139//47 144//147
f 149//144 142//138 106//115
f 147//142 138//137 148//145
f 144//147 147//142 146//146
f 150//143 144//147 149//144
f 132//132 151//134 150//143
f 150//143 151//134 144//147
f 107//114 154//139 152//149
f 142//138 153//140 154//139
f 152//149 154//139 100//113
f 99//130 131//129 106//115
f 136//43 135//45 134//150
f 144//147 137//148 139//47
f 147//142 144//147 139//47
f 157//161 159//151 146//146
f 153//140 142//138 156//153
f 158//154 157//161 146//146
f 155//159 158//154 141//136
f 142//138 149//144 156//153
f 141//136 140//141 155//159
f 140//141 160//152 155//159
f 165//155 162//195 156//153
f 159//151 157//161 163//156
f 158//154 155//159 161//158
f 166//160 161//158 160//152
f 162//195 166//160 156//153
f 164//157 163//156 157//161
f 163//156 164//157 169//163
f 162//195 165//155 168//165
f 161//158 166//160 172//167
f 165//155 163//156 169//163
f 167//166 170//162 161//158
f 166//160 162//195 168//165
f 180//172 175//168 172//167
f 171//164 169//163 177//170
f 170//162 167//166 175//168
f 176//173 180//172 168//165
f 169//163 170//162 177//170
f 168//165 171//164 176//173
f 182//176 184//174 177//170
f 177//170 178//171 182//176
f 176//173 179//169 181//177
f 185//190 187//178 188//180
f 187//178 186//184 189//181
f 192//186 191//182 189//181
f 196//187 189//181 195//185
f 175//168 180//172 191//182
f 191//182 180//172 193//183
f 180//172 197//188 193//183
f 193//183 197//188 194//189
f 188//180 193//183 194//189
f 196//187 198//191 175//168
f 192//186 196//187 175//168
f 195//185 183//175 198//191
f 184//174 182//176 183//175
f 194//189 184//174 183//175
f 194//189 183//175 195//185
f 194//189 195//185 186//184
f 185//190 194//189 187//178
f 194//189 186//184 187//178
