# Blender v2.68 (sub 0) OBJ File: ''
# www.blender.org
o Cube.001
v 1.000000 -1.000000 -1.000000
v 1.000000 -1.000000 1.000000
v -1.000000 -1.000000 -1.000000
v 0.999999 1.000000 1.000001
v 1.000000 1.000000 -0.999999
v 0.665887 1.000000 0.665888
v 1.000000 -0.652085 -0.652085
v -1.000000 -1.000000 1.000000
v -1.000000 1.000000 1.000000
v 0.673177 0.673176 -1.000000
v 0.665888 1.000000 -0.665887
v 0.317175 3.392204 0.317177
v -1.000000 1.000000 -1.000000
v -0.665888 1.000000 0.665887
v -0.665888 1.000000 -0.665888
v -0.317175 3.392204 -0.317174
v -0.317176 3.392204 0.317176
v -0.657949 3.392204 -0.657948
v 0.317175 3.392204 -0.317174
v -0.657949 3.392204 0.657950
v 0.657948 3.392204 0.657950
v 0.657948 3.392204 0.657950
v 0.657949 3.392204 -0.657947
v -0.657949 3.392204 0.657950
v 0.657949 3.392204 -0.657947
v -0.657949 3.392204 -0.657948
v 0.000000 4.506907 0.000001
v 0.513445 3.276017 0.513447
v -0.513445 3.276017 0.513446
v 0.513445 3.276017 -0.513444
v -0.513445 3.276017 -0.513444
v -0.626229 3.142926 -0.626228
v 0.626228 3.142926 0.626230
v -0.626229 3.142926 0.626230
v 0.626229 3.142926 -0.626227
v -0.478948 2.984938 -0.478948
v 0.478948 2.984938 0.478949
v -0.478949 2.984938 0.478948
v 0.478949 2.984938 -0.478948
v 0.629679 2.837054 -0.629678
v -0.629678 2.837054 -0.629678
v 0.629678 2.837054 0.629680
v -0.629679 2.837054 0.629678
v 1.000000 0.652085 0.652086
v 1.000000 -0.652085 0.652086
v 3.326189 0.409721 0.409722
v 1.000000 0.652085 -0.652085
v 3.326189 -0.409721 -0.409720
v 3.326189 0.409721 -0.409720
v 3.326189 -0.634548 -0.634548
v 3.326189 -0.409721 0.409722
v -0.673176 0.673176 -1.000000
v -0.492251 0.492253 -3.292901
v 3.326189 0.634549 0.634550
v 3.326190 0.634549 -0.634547
v 3.326189 -0.634548 0.634549
v 0.492253 -0.492250 -3.292901
v -0.492251 -0.492250 -3.292901
v 0.753196 -0.753193 -3.292901
v 0.673176 -0.673176 -1.000000
v -0.673176 -0.673176 -1.000000
v 0.492253 0.492253 -3.292901
v 4.350467 -0.000000 0.000001
v -0.647922 0.647923 -2.958754
v -0.647922 -0.647922 -2.958754
v -0.809507 0.809509 -2.698187
v -0.753194 0.753196 -3.292901
v -0.753194 -0.753193 -3.292901
v 0.753196 0.753196 -3.292901
v 0.647923 -0.647922 -2.958754
v 0.647924 0.647923 -2.958754
v 0.809509 -0.809508 -2.698187
v 0.000001 0.000002 -4.707225
v -0.809507 -0.809508 -2.698188
v 0.809509 0.809509 -2.698187
vn 0.000000 -1.000000 -0.000000
vn 0.000000 1.000000 0.000000
vn 1.000000 0.000000 0.000000
vn 0.000000 -0.000001 1.000000
vn -1.000000 -0.000000 0.000000
vn 0.000003 0.000001 -1.000000
vn 0.989542 0.144246 0.000001
vn 0.000001 0.144246 -0.989542
vn -0.000001 0.144246 0.989542
vn -0.989542 0.144246 0.000000
vn 0.000000 0.000000 0.000000
vn 0.000000 0.508306 0.861177
vn -0.861176 0.508306 0.000000
vn 0.861177 0.508306 0.000001
vn 0.000001 0.508306 -0.861177
vn 0.000000 -0.779328 0.626616
vn -0.626613 -0.779330 0.000000
vn 0.626614 -0.779330 0.000000
vn 0.000000 -0.779330 -0.626614
vn 0.000000 0.646505 -0.762910
vn -0.000001 0.646501 0.762913
vn -0.762910 0.646505 0.000000
vn 0.762910 0.646505 0.000000
vn 0.000001 -0.681886 -0.731459
vn 0.000000 -0.681884 0.731460
vn -0.731461 -0.681884 0.000000
vn 0.731461 -0.681883 0.000001
vn 0.700336 0.713814 0.000001
vn 0.000000 0.713814 -0.700336
vn -0.000001 0.713814 0.700336
vn -0.700336 0.713814 -0.000001
vn 0.103628 -0.000000 0.994616
vn 1.000000 0.000001 0.000002
vn 1.000000 0.000001 0.000001
vn 0.103628 0.994616 0.000000
vn 0.103628 -0.994616 -0.000000
vn 0.103629 0.000000 -0.994616
vn 0.000000 0.996901 -0.078661
vn -1.000000 0.000004 0.000000
vn 0.000001 0.000001 -1.000000
vn 0.000000 -0.000000 -1.000000
vn 0.996901 -0.000001 -0.078662
vn 0.526638 0.000000 -0.850090
vn 0.526637 -0.000001 0.850090
vn 0.526638 0.850090 0.000001
vn 0.526637 -0.850090 -0.000000
vn 0.000000 -0.996901 -0.078662
vn -0.996901 0.000000 -0.078662
vn -0.849854 0.000000 -0.527018
vn -0.000001 0.000000 1.000000
vn 0.849852 -0.000001 -0.527022
vn -0.953786 -0.000000 0.300487
vn -0.000000 0.953786 0.300488
vn 0.000000 -0.953786 0.300487
vn 0.953785 -0.000000 0.300490
vn 0.882641 0.000000 -0.470048
vn 0.000000 -0.882641 -0.470049
vn 0.000000 0.882641 -0.470048
vn -0.882641 0.000000 -0.470048
vn -0.000000 -0.849851 -0.527023
vn 0.000000 0.849853 -0.527020
vn -0.000000 -0.000000 1.000000
vn 0.989542 0.144246 0.000000
vn 0.000000 0.144246 -0.989542
vn -0.000002 0.144245 0.989542
vn -0.989542 0.144245 -0.000002
vn -0.000001 -0.779330 0.626613
vn 0.626616 -0.779328 0.000000
vn 0.000000 -0.779328 -0.626616
vn 0.000001 0.646502 -0.762912
vn 0.000000 0.646505 0.762910
vn 0.762912 0.646502 0.000001
vn 0.000000 -0.681884 -0.731461
vn -0.000001 -0.681887 0.731458
vn -0.731458 -0.681887 -0.000001
vn 0.731460 -0.681884 0.000001
vn 0.700335 0.713814 0.000001
vn 0.000000 0.713814 -0.700335
vn -0.000001 0.713814 0.700335
vn -0.700335 0.713814 -0.000001
vn 1.000000 0.000003 0.000000
vn -1.000000 0.000001 -0.000003
vn -1.000000 0.000001 -0.000001
vn 0.000000 0.000003 -1.000000
vn 0.996901 0.000000 -0.078661
vn -0.849853 0.000000 -0.527020
vn 0.000001 -0.000000 1.000000
vn 0.849854 0.000000 -0.527018
vn 0.953786 -0.000001 0.300487
vn 0.000000 -0.849852 -0.527022
s off
f 1//1 2//1 3//1
f 4//2 5//2 6//2
f 1//3 5//3 7//3
f 2//4 4//4 8//4
f 8//5 9//5 3//5
f 5//6 1//6 10//6
f 6//7 11//7 12//7
f 5//2 13//2 11//2
f 9//2 4//2 14//2
f 13//2 9//2 15//2
f 16//1 17//1 18//1
f 11//8 15//8 19//8
f 14//9 6//9 17//9
f 15//10 14//10 16//10
f 20//11 21//11 22//11
f 12//1 19//1 21//1
f 19//1 16//1 23//1
f 17//1 12//1 20//1
f 18//11 20//11 24//11
f 21//11 23//11 25//11
f 23//11 18//11 26//11
f 24//12 22//12 27//12
f 26//13 24//13 27//13
f 22//14 25//14 27//14
f 25//15 26//15 27//15
f 22//16 24//16 28//16
f 24//17 26//17 29//17
f 25//18 22//18 30//18
f 26//19 25//19 31//19
f 31//20 30//20 32//20
f 28//21 29//21 33//21
f 29//22 31//22 34//22
f 30//23 28//23 35//23
f 32//24 35//24 36//24
f 33//25 34//25 37//25
f 34//26 32//26 38//26
f 35//27 33//27 39//27
f 39//28 37//28 40//28
f 36//29 39//29 41//29
f 37//30 38//30 42//30
f 38//31 36//31 43//31
f 40//2 41//2 43//2
f 42//2 40//2 43//2
f 44//32 45//32 46//32
f 2//3 1//3 45//3
f 4//33 2//33 44//33
f 5//34 4//34 47//34
f 48//5 49//5 50//5
f 47//35 44//35 49//35
f 45//36 7//36 51//36
f 7//37 47//37 48//37
f 52//38 10//38 53//38
f 46//5 51//5 54//5
f 49//39 46//39 55//39
f 51//5 48//5 56//5
f 57//4 58//4 59//4
f 13//40 5//40 52//40
f 1//41 3//41 60//41
f 3//41 13//41 61//41
f 10//42 60//42 62//42
f 50//43 55//43 63//43
f 54//44 56//44 63//44
f 55//45 54//45 63//45
f 56//46 50//46 63//46
f 60//47 61//47 57//47
f 61//48 52//48 58//48
f 64//49 65//49 66//49
f 53//4 62//4 67//4
f 58//50 53//50 68//50
f 62//50 57//50 69//50
f 70//51 71//51 72//51
f 67//52 68//52 64//52
f 69//53 67//53 71//53
f 68//54 59//54 65//54
f 59//55 69//55 70//55
f 69//56 59//56 73//56
f 59//57 68//57 73//57
f 67//58 69//58 73//58
f 68//59 67//59 73//59
f 65//60 70//60 74//60
f 71//61 64//61 75//61
f 2//1 8//1 3//1
f 5//2 11//2 6//2
f 5//3 47//3 7//3
f 4//62 9//62 8//62
f 9//5 13//5 3//5
f 1//41 60//41 10//41
f 11//63 19//63 12//63
f 13//2 15//2 11//2
f 4//2 6//2 14//2
f 9//2 14//2 15//2
f 17//1 20//1 18//1
f 15//64 16//64 19//64
f 6//65 12//65 17//65
f 14//66 17//66 16//66
f 24//11 20//11 22//11
f 19//1 23//1 21//1
f 16//1 18//1 23//1
f 12//1 21//1 20//1
f 26//11 18//11 24//11
f 22//11 21//11 25//11
f 25//11 23//11 26//11
f 24//67 29//67 28//67
f 26//17 31//17 29//17
f 22//68 28//68 30//68
f 25//69 30//69 31//69
f 30//70 35//70 32//70
f 29//71 34//71 33//71
f 31//22 32//22 34//22
f 28//72 33//72 35//72
f 35//73 39//73 36//73
f 34//74 38//74 37//74
f 32//75 36//75 38//75
f 33//76 37//76 39//76
f 37//77 42//77 40//77
f 39//78 40//78 41//78
f 38//79 43//79 42//79
f 36//80 41//80 43//80
f 45//32 51//32 46//32
f 1//3 7//3 45//3
f 2//3 45//3 44//3
f 4//81 44//81 47//81
f 49//82 55//82 50//82
f 44//35 46//35 49//35
f 7//36 48//36 51//36
f 47//37 49//37 48//37
f 10//38 62//38 53//38
f 51//5 56//5 54//5
f 46//83 54//83 55//83
f 48//5 50//5 56//5
f 58//4 68//4 59//4
f 5//84 10//84 52//84
f 3//41 61//41 60//41
f 13//41 52//41 61//41
f 60//85 57//85 62//85
f 61//47 58//47 57//47
f 52//48 53//48 58//48
f 65//86 74//86 66//86
f 62//4 69//4 67//4
f 53//87 67//87 68//87
f 57//87 59//87 69//87
f 71//88 75//88 72//88
f 68//52 65//52 64//52
f 67//53 64//53 71//53
f 59//54 70//54 65//54
f 69//89 71//89 70//89
f 70//90 72//90 74//90
f 64//61 66//61 75//61
